<svg xmlns="http://www.w3.org/2000/svg" xmlns:xlink="http://www.w3.org/1999/xlink" viewBox="0 0 121.48 112.89"><defs><style>.cls-1{fill:#00a2ff;}.cls-2{fill:url(#linear-gradient);}</style><linearGradient id="linear-gradient" x1="-4.91" y1="56.45" x2="94.17" y2="56.45" gradientUnits="userSpaceOnUse"><stop offset="0" stop-color="#00a7ff"/><stop offset="1" stop-color="#00d8ad"/></linearGradient></defs><g id="Layer_2" data-name="Layer 2"><g id="OBJECTS"><polygon class="cls-1" points="14.27 56.45 46.86 0 32.59 0 0 56.45 32.59 112.89 46.86 112.89 14.27 56.45"/><path class="cls-2" d="M113.91,28.22h0A56.44,56.44,0,0,0,65,0H52.85L22.39,52.75h9.1A30.37,30.37,0,0,0,61.86,22.38h9.29a30.8,30.8,0,0,1,27.56,17h0a34.05,34.05,0,0,1,0,34.07h0a34.05,34.05,0,0,1-29.5,17H61.86A30.37,30.37,0,0,0,31.49,60.14h-9.1l30.46,52.75H65a56.44,56.44,0,0,0,48.88-28.22h0A56.42,56.42,0,0,0,113.91,28.22Z"/></g></g></svg>